<svg xmlns="http://www.w3.org/2000/svg">
	<symbol id="phone" fill="none" viewBox="0 0 24 24">
		<g>
         <path d="M3 5.5C3 14.0604 9.93959 21 18.5 21C18.8862 21 19.2691 20.9859 19.6483 20.9581C20.0834 20.9262 20.3009 20.9103 20.499 20.7963C20.663 20.7019 20.8185 20.5345 20.9007 20.364C21 20.1582 21 19.9181 21 19.438V16.6207C21 16.2169 21 16.015 20.9335 15.842C20.8749 15.6891 20.7795 15.553 20.6559 15.4456C20.516 15.324 20.3262 15.255 19.9468 15.117L16.74 13.9509C16.2985 13.7904 16.0777 13.7101 15.8683 13.7237C15.6836 13.7357 15.5059 13.7988 15.3549 13.9058C15.1837 14.0271 15.0629 14.2285 14.8212 14.6314L14 16C11.3501 14.7999 9.2019 12.6489 8 10L9.36863 9.17882C9.77145 8.93713 9.97286 8.81628 10.0942 8.64506C10.2012 8.49408 10.2643 8.31637 10.2763 8.1317C10.2899 7.92227 10.2096 7.70153 10.0491 7.26005L8.88299 4.05321C8.745 3.67376 8.67601 3.48403 8.55442 3.3441C8.44701 3.22049 8.31089 3.12515 8.15802 3.06645C7.98496 3 7.78308 3 7.37932 3H4.56201C4.08188 3 3.84181 3 3.63598 3.09925C3.4655 3.18146 3.29814 3.33701 3.2037 3.50103C3.08968 3.69907 3.07375 3.91662 3.04189 4.35173C3.01413 4.73086 3 5.11378 3 5.5Z" stroke="currentColor" stroke-width="2" stroke-linecap="round" stroke-linejoin="round"/>
      </g>
   </symbol>
	<symbol id="location" fill="none" viewBox="0 0 24 24">
		<g>
         <path d="M12 21C15.5 17.4 19 14.1764 19 10.2C19 6.22355 15.866 3 12 3C8.13401 3 5 6.22355 5 10.2C5 14.1764 8.5 17.4 12 21Z" stroke="currentColor" stroke-width="2" stroke-linecap="round" stroke-linejoin="round"/>
         <path d="M12 12C13.1046 12 14 11.1046 14 10C14 8.89543 13.1046 8 12 8C10.8954 8 10 8.89543 10 10C10 11.1046 10.8954 12 12 12Z" stroke="currentColor" stroke-width="2" stroke-linecap="round" stroke-linejoin="round"/>
      </g>
   </symbol>
	<symbol id="clock" fill="none" viewBox="0 0 24 24">
		<g>
        <path d="M12 7V12L14.5 10.5M21 12C21 16.9706 16.9706 21 12 21C7.02944 21 3 16.9706 3 12C3 7.02944 7.02944 3 12 3C16.9706 3 21 7.02944 21 12Z" stroke="currentColor" stroke-width="2" stroke-linecap="round" stroke-linejoin="round"/>
      </g>
   </symbol>
	<symbol id="building" fill="currentColor" viewBox="0 0 24 24" fill-rule="evenodd" clip-rule="evenodd">
		<g>
        <path d="M24 24h-23v-16h6v-8h11v12h6v12zm-12-5h-3v4h3v-4zm4 0h-3v4h3v-4zm6 0h-2v4h2v-4zm-17 0h-2v4h2v-4zm11-5h-2v2h2v-2zm-5 0h-2v2h2v-2zm11 0h-2v2h2v-2zm-17 0h-2v2h2v-2zm11-4h-2v2h2v-2zm-5 0h-2v2h2v-2zm-6 0h-2v2h2v-2zm11-4h-2v2h2v-2zm-5 0h-2v2h2v-2zm5-4h-2v2h2v-2zm-5 0h-2v2h2v-2z"/>
      </g>
   </symbol>
	<symbol id="hot" fill="currentColor" viewBox="0 0 24 24" fill-rule="evenodd" clip-rule="evenodd">
		<g>
         <path d="M8.625 0c.61 7.189-5.625 9.664-5.625 15.996 0 4.301 3.069 7.972 9 8.004 5.931.032 9-4.414 9-8.956 0-4.141-2.062-8.046-5.952-10.474.924 2.607-.306 4.988-1.501 5.808.07-3.337-1.125-8.289-4.922-10.378zm4.711 13c3.755 3.989 1.449 9-1.567 9-1.835 0-2.779-1.265-2.769-2.577.019-2.433 2.737-2.435 4.336-6.423z"/>
      </g>
   </symbol>
	<symbol id="home" fill="currentColor" viewBox="0 0 24 24">
		<g >
         <path d="M21 13v10h-6v-6h-6v6h-6v-10h-3l12-12 12 12h-3zm-1-5.907v-5.093h-3v2.093l3 3z"/>
      </g>
   </symbol>
	<symbol id="wrench" fill="currentColor" viewBox="0 0 24 24">
		<g >
         <path d="M3.273 7.151l-2.917-2.916c-.23.665-.356 1.361-.356 2.057 0 1.608.624 3.216 1.851 4.442 1.35 1.351 3.163 1.957 4.928 1.821.933-.072 1.851.268 2.513.93l9.646 9.646c.58.579 1.338.869 2.097.869 1.636 0 2.965-1.326 2.965-2.965 0-.759-.29-1.518-.868-2.097l-9.647-9.646c-.661-.662-1.002-1.581-.93-2.514.136-1.766-.47-3.578-1.821-4.928-.372-.372-.778-.686-1.209-.945l-6.252 6.246zm18.727 13.849c0 .552-.448 1-1 1s-1-.448-1-1 .448-1 1-1 1 .447 1 1zm-12.153-13.396l-3.061 3.061-2.566-2.567 3.062-3.061 2.565 2.567zm-.933.096l-.762.761-1.705-1.705.762-.762 1.705 1.706zm-2.991-.42l-.761.762 1.706 1.705.762-.762-1.707-1.705zm2.484-6.903l-2.893 2.893-2.412-2.412c.953-.556 2.044-.858 3.165-.858.707 0 1.425.12 2.128.373l.012.004z"/>
      </g>
   </symbol>
</svg>